<?xml version="1.0" encoding="UTF-8" standalone="no"?>
<!-- Created with Inkscape (http://www.inkscape.org/) -->

<svg
   width="39.0648mm"
   height="12.039575mm"
   viewBox="0 0 39.0648 12.039575"
   version="1.1"
   id="svg1"
   sodipodi:docname="KZG_logo_original.svg"
   inkscape:version="1.4.2 (f4327f4, 2025-05-13)"
   xmlns:inkscape="http://www.inkscape.org/namespaces/inkscape"
   xmlns:sodipodi="http://sodipodi.sourceforge.net/DTD/sodipodi-0.dtd"
   xmlns="http://www.w3.org/2000/svg"
   xmlns:svg="http://www.w3.org/2000/svg">
  <sodipodi:namedview
     id="namedview1"
     pagecolor="#505050"
     bordercolor="#ffffff"
     borderopacity="1"
     inkscape:showpageshadow="0"
     inkscape:pageopacity="0"
     inkscape:pagecheckerboard="1"
     inkscape:deskcolor="#505050"
     inkscape:document-units="mm"
     inkscape:zoom="5.785339"
     inkscape:cx="92.561559"
     inkscape:cy="11.840274"
     inkscape:window-width="2560"
     inkscape:window-height="1369"
     inkscape:window-x="1912"
     inkscape:window-y="-8"
     inkscape:window-maximized="1"
     inkscape:current-layer="svg1" />
  <defs
     id="defs1">
    <rect
       x="182.75813"
       y="428.03879"
       width="401.58694"
       height="412.64862"
       id="rect1" />
  </defs>
  <path
     d="m 13.96969,0.15244548 c -0.321733,0 -0.55028,0.0508455 -0.685746,0.15244547 -0.118534,0.0846667 -0.194543,0.23668633 -0.22841,0.45681966 -0.01693,0.2032 -0.02532,0.48259169 -0.02532,0.83819169 h 7.721493 c -0.0508,0.0508 -0.144103,0.1357148 -0.27957,0.2542481 -0.135466,0.1185333 -0.27071,0.2621649 -0.406176,0.4314982 -0.3556,0.3725333 -0.77914,0.8212377 -1.270207,1.3461711 -0.491067,0.5249333 -1.015781,1.0926216 -1.574581,1.7022216 -0.5588,0.5926667 -1.109195,1.1850027 -1.651062,1.7776693 -0.541867,0.5757333 -1.033028,1.1093525 -1.473295,1.6004191 -0.440267,0.4741333 -0.795668,0.855216 -1.066602,1.1430827 -0.270933,0.2878666 -0.406693,0.4398866 -0.406693,0.4568196 v 1.524455 h 10.56628 c 0.321733,0 0.567573,-0.0089 0.736906,-0.02584 0.169333,-0.03387 0.296189,-0.0931 0.380855,-0.177767 0.08467,-0.1016 0.135512,-0.245232 0.152446,-0.431499 0.01693,-0.2032 0.02532,-0.474203 0.02532,-0.81287 h -8.331274 l 0.304891,-0.177767 6.807336,-7.5184039 c 0.270933,-0.254 0.482703,-0.5250036 0.635103,-0.8128703 0.1524,-0.2878666 0.253575,-0.5588702 0.304375,-0.8128702 0.06773,-0.25400003 0.101802,-0.46577006 0.101802,-0.63510339 0.01693,-0.16933333 0.02532,-0.2621194 0.02532,-0.27905273 z"
     style="font-weight:500;font-size:96px;font-family:Genos;-inkscape-font-specification:'Genos Medium';text-align:center;text-anchor:middle;white-space:pre;shape-padding:10.0998"
     id="path3" />
  <path
     d="m 9.9818197,0.07596436 c -0.3894667,0 -0.7364802,0.03406923 -1.0412801,0.10180257 C 8.6526729,0.24550026 8.3816693,0.38074369 8.1276693,0.58394368 7.7720693,0.95647701 7.3825985,1.3543359 6.9592651,1.7776693 L 5.7148966,3.0225545 C 5.32543,3.4289545 4.9695116,3.8100372 4.6477783,4.1656372 4.4953783,4.3349705 4.3601349,4.4618258 4.2416016,4.5464925 4.1230682,4.6311592 3.9621437,4.6903928 3.7589437,4.7242594 L 2.5905396,4.826062 V 3.8354248 2.4892537 1.1430827 0.15244548 H 1.7270264 0.83819173 c -0.254,0 -0.44899378,0.0335525 -0.58446045,0.1012858 C 0.13519795,0.32146462 0.05918812,0.42315557 0.02532145,0.55862223 0.00838812,0.67715556 0,0.83808011 0,1.0412801 V 11.836487 H 2.5905396 V 6.9339437 l 1.1430826,0.076481 c 0.2878667,0.084667 0.4996367,0.1774527 0.6351034,0.2790527 0.1354667,0.1016 0.2963912,0.2541365 0.4826579,0.4573365 0.1354666,0.1354666 0.3215555,0.3388485 0.5586222,0.6097819 0.2370667,0.254 0.4996822,0.5417798 0.7875488,0.8635131 0.3048,0.3217334 0.600968,0.6435825 0.8888347,0.9653161 0.2878666,0.3048 0.542094,0.575803 0.7622273,0.81287 0.2201334,0.237067 0.389446,0.406379 0.5079794,0.507979 0.254,0.186267 0.5160987,0.321511 0.787032,0.406177 0.2878667,0.08467 0.6013277,0.127124 0.9399941,0.127124 0.3048,0 0.567416,-0.05084 0.787549,-0.152445 0.220133,-0.08467 0.406222,-0.17797 0.558622,-0.27957 0.1524,-0.118533 0.254091,-0.211319 0.304891,-0.279053 -0.6096,-0.5588 -1.227617,-1.143264 -1.8541501,-1.7528642 C 9.2540005,8.9491096 8.6443716,8.3478687 8.0517049,7.7721354 7.4759716,7.1964021 6.9507406,6.6884641 6.4766073,6.2481974 6.165878,5.9485674 5.8919191,5.6962242 5.6539185,5.4911377 5.9669682,5.1970454 6.3001633,4.8906051 6.6543742,4.571814 7.1623742,4.114614 7.6876052,3.6575214 8.2294718,3.2003215 8.7713385,2.7261881 9.2876646,2.2858718 9.7787313,1.8794718 9.9480646,1.6932052 10.151447,1.4814352 10.388513,1.2443685 10.62558,1.0073018 10.83735,0.78714368 11.023617,0.58394368 11.226817,0.38074369 11.345284,0.27066462 11.37915,0.25373128 11.159017,0.20293128 10.947247,0.16099069 10.744047,0.12712402 10.540847,0.09325736 10.28662,0.07596436 9.9818197,0.07596436 Z"
     style="font-weight:500;font-size:96px;font-family:Genos;-inkscape-font-specification:'Genos Medium';text-align:center;text-anchor:middle;white-space:pre;shape-padding:10.0998"
     id="path2" />
  <path
     d="m 32.79128,0 c -1.0668,0 -2.015054,0.07600983 -2.844787,0.22840983 -0.829734,0.1524 -1.541054,0.44017986 -2.13372,0.86351317 -0.592667,0.4233333 -1.041371,1.0329623 -1.346171,1.828829 -0.3048,0.7958666 -0.457337,1.8290356 -0.457337,3.0990356 0,1.1853333 0.118467,2.1671401 0.355534,2.9460734 0.237067,0.762 0.609761,1.371629 1.117761,1.828829 0.524934,0.440267 1.202184,0.753728 2.031918,0.939994 0.846666,0.186267 1.879835,0.27957 3.099035,0.27957 1.236134,0 2.268786,-0.07653 3.098519,-0.228927 0.846667,-0.169333 1.507141,-0.431432 1.981274,-0.787032 0.491067,-0.3556 0.838081,-0.821597 1.041281,-1.3973306 0.220133,-0.5926667 0.330212,-1.329151 0.330212,-2.2096843 V 5.1304362 h -5.917985 c -0.389467,0 -0.677247,0.042457 -0.863513,0.127124 -0.186267,0.084667 -0.304734,0.2372031 -0.355534,0.4573364 -0.03387,0.2032 -0.05116,0.4909799 -0.05116,0.8635132 h 4.648295 v 0.3555339 c 0.01693,0.1354666 0.01693,0.2963912 0,0.4826579 -0.01693,0.8297333 -0.152176,1.4818196 -0.406176,1.9559529 -0.237067,0.4572 -0.626538,0.7701445 -1.168405,0.9394775 -0.541866,0.169333 -1.269962,0.254248 -2.184362,0.254248 -1.016,0 -1.820623,-0.135243 -2.41329,-0.406177 -0.592666,-0.270933 -1.01569,-0.7369304 -1.26969,-1.3973304 -0.254,-0.6604 -0.381372,-1.574585 -0.381372,-2.742985 0,-1.2192 0.13576,-2.1590662 0.406694,-2.8194661 0.287866,-0.6604 0.753347,-1.1174926 1.396814,-1.3714926 0.6604,-0.2709333 1.54942,-0.4066935 2.66702,-0.4066935 0.237067,0 0.558916,0.00839 0.965316,0.025322 0.4064,0.016933 0.838328,0.042614 1.295528,0.076481 0.4572,0.033867 0.897517,0.084712 1.32085,0.1524455 0.440267,0.0508 0.820833,0.1100336 1.142566,0.1777669 0.338667,0.067733 0.567213,0.1610362 0.685746,0.2795695 V 1.4732951 c 0,-0.1524 -0.02516,-0.3049364 -0.07596,-0.4573364 C 38.47231,0.86355866 38.362231,0.72779847 38.175964,0.60926514 38.006631,0.47379847 37.735627,0.37262428 37.363094,0.30489095 36.855094,0.18635762 36.203008,0.10983102 35.407141,0.07596436 34.628208,0.02516436 33.75648,0 32.79128,0 Z"
     style="font-weight:500;font-size:96px;font-family:Genos;-inkscape-font-specification:'Genos Medium';text-align:center;text-anchor:middle;white-space:pre;shape-padding:10.0998"
     id="path1" />
</svg>
